<svg width="48" height="48" viewBox="0 0 48 48" fill="none" xmlns="http://www.w3.org/2000/svg">
<path d="M24 6C19.11 6 18.4995 6.0225 16.5795 6.108C14.6625 6.198 13.3575 6.4995 12.21 6.945C11.0265 7.404 10.0215 8.0205 9.021 9.021C8.0205 10.0215 7.4025 11.025 6.945 12.21C6.4995 13.3575 6.1965 14.6625 6.108 16.5795C6.018 18.4995 6 19.11 6 24C6 28.89 6.0225 29.5005 6.108 31.4205C6.198 33.336 6.4995 34.6425 6.945 35.79C7.404 36.972 8.0205 37.9785 9.021 38.979C10.0215 39.978 11.025 40.5975 12.21 41.055C13.359 41.499 14.664 41.8035 16.5795 41.892C18.4995 41.982 19.11 42 24 42C28.89 42 29.5005 41.9775 31.4205 41.892C33.336 41.802 34.6425 41.499 35.79 41.055C36.972 40.596 37.9785 39.978 38.979 38.979C39.978 37.9785 40.5975 36.9765 41.055 35.79C41.499 34.6425 41.8035 33.336 41.892 31.4205C41.982 29.5005 42 28.89 42 24C42 19.11 41.9775 18.4995 41.892 16.5795C41.802 14.664 41.499 13.356 41.055 12.21C40.596 11.0265 39.978 10.0215 38.979 9.021C37.9785 8.0205 36.9765 7.4025 35.79 6.945C34.6425 6.4995 33.336 6.1965 31.4205 6.108C29.5005 6.018 28.89 6 24 6ZM24 9.24C28.8045 9.24 29.3775 9.264 31.275 9.3465C33.03 9.429 33.9825 9.72 34.6155 9.969C35.4585 10.2945 36.0555 10.6845 36.6885 11.313C37.317 11.943 37.707 12.5415 38.0325 13.3845C38.2785 14.0175 38.5725 14.97 38.652 16.725C38.7375 18.624 38.757 19.194 38.757 24C38.757 28.806 38.7345 29.3775 38.646 31.275C38.5545 33.03 38.262 33.9825 38.0145 34.6155C37.6785 35.4585 37.296 36.0555 36.666 36.6885C36.0375 37.317 35.43 37.707 34.596 38.0325C33.966 38.2785 32.9985 38.5725 31.2435 38.652C29.3325 38.7375 28.77 38.757 23.955 38.757C19.1385 38.757 18.576 38.7345 16.6665 38.646C14.91 38.5545 13.9425 38.262 13.3125 38.0145C12.459 37.6785 11.8725 37.296 11.244 36.666C10.6125 36.0375 10.209 35.43 9.894 34.596C9.6465 33.966 9.3555 32.9985 9.264 31.2435C9.1965 29.3535 9.1725 28.77 9.1725 23.9775C9.1725 19.1835 9.1965 18.5985 9.264 16.686C9.3555 14.931 9.6465 13.965 9.894 13.335C10.209 12.48 10.6125 11.895 11.244 11.2635C11.8725 10.635 12.459 10.23 13.3125 9.9165C13.9425 9.6675 14.889 9.375 16.644 9.285C18.5565 9.2175 19.119 9.195 23.9325 9.195L24 9.24ZM24 14.757C18.8925 14.757 14.757 18.897 14.757 24C14.757 29.1075 18.897 33.243 24 33.243C29.1075 33.243 33.243 29.103 33.243 24C33.243 18.8925 29.103 14.757 24 14.757ZM24 30C20.685 30 18 27.315 18 24C18 20.685 20.685 18 24 18C27.315 18 30 20.685 30 24C30 27.315 27.315 30 24 30ZM35.769 14.3925C35.769 15.585 34.8 16.5525 33.609 16.5525C32.4165 16.5525 31.449 15.5835 31.449 14.3925C31.449 13.2015 32.418 12.234 33.609 12.234C34.7985 12.2325 35.769 13.2015 35.769 14.3925Z" fill="white"/>
</svg>
