<svg width="48" height="48" viewBox="0 0 48 48" fill="none" xmlns="http://www.w3.org/2000/svg">
<path d="M45.0814 12.9412C44.8264 11.9903 44.34 11.1239 43.6691 10.4258C42.9983 9.72776 42.1658 9.22157 41.252 8.95619C37.8224 8.00003 24.0196 8.00003 24.0196 8.00003C24.0196 8.00003 10.2516 7.98094 6.78717 8.95619C5.8734 9.22157 5.04086 9.72776 4.37003 10.4258C3.69921 11.1239 3.21277 11.9903 2.95775 12.9412C2.30763 16.595 1.98712 20.3041 2.0004 24.0201C1.98963 27.722 2.31013 31.4169 2.95775 35.057C3.21277 36.0079 3.69921 36.8742 4.37003 37.5723C5.04086 38.2704 5.8734 38.7766 6.78717 39.0419C10.2131 40 24.0196 40 24.0196 40C24.0196 40 37.7857 40 41.252 39.0419C42.1658 38.7766 42.9983 38.2704 43.6691 37.5723C44.34 36.8742 44.8264 36.0079 45.0814 35.057C45.7155 31.4156 46.0225 27.7207 45.9984 24.0201C46.025 20.3054 45.718 16.5963 45.0814 12.9412ZM19.6143 30.8735V17.1456L31.1025 24.0201L19.6143 30.8735Z" fill="white"/>
</svg>
